<svg xmlns="http://www.w3.org/2000/svg" xmlns:xlink="http://www.w3.org/1999/xlink" width="494.71" height="556.041" viewBox="0 0 494.71 556.041"><defs><filter id="a" x="0" y="0" width="207.229" height="232.989" filterUnits="userSpaceOnUse"><feOffset dy="5" input="SourceAlpha"/><feGaussianBlur stdDeviation="5" result="b"/><feFlood flood-color="#d9e1eb"/><feComposite operator="in" in2="b"/><feComposite in="SourceGraphic"/></filter><filter id="c" x="194.746" y="0" width="207.229" height="232.989" filterUnits="userSpaceOnUse"><feOffset dy="5" input="SourceAlpha"/><feGaussianBlur stdDeviation="5" result="d"/><feFlood flood-color="#d9e1eb"/><feComposite operator="in" in2="d"/><feComposite in="SourceGraphic"/></filter><filter id="e" x="287.481" y="163.296" width="207.229" height="229.941" filterUnits="userSpaceOnUse"><feOffset dy="5" input="SourceAlpha"/><feGaussianBlur stdDeviation="5" result="f"/><feFlood flood-color="#d9e1eb"/><feComposite operator="in" in2="f"/><feComposite in="SourceGraphic"/></filter><filter id="g" x="97.889" y="163.296" width="207.229" height="229.941" filterUnits="userSpaceOnUse"><feOffset dy="5" input="SourceAlpha"/><feGaussianBlur stdDeviation="5" result="h"/><feFlood flood-color="#d9e1eb"/><feComposite operator="in" in2="h"/><feComposite in="SourceGraphic"/></filter><filter id="i" x="4.638" y="326.099" width="207.229" height="229.941" filterUnits="userSpaceOnUse"><feOffset dy="5" input="SourceAlpha"/><feGaussianBlur stdDeviation="5" result="j"/><feFlood flood-color="#d9e1eb"/><feComposite operator="in" in2="j"/><feComposite in="SourceGraphic"/></filter><clipPath id="k"><ellipse cx="29.498" cy="29.497" rx="29.498" ry="29.497" fill="none"/></clipPath></defs><g transform="translate(-1039.645 -1510.526)"><g transform="matrix(1, 0, 0, 1, 1039.65, 1510.53)" filter="url(#a)"><path d="M146.445,0a10,10,0,0,1,8.678,5.03l45.02,78.614a10,10,0,0,1,0,9.939L155.122,172.2a10,10,0,0,1-8.678,5.03h-89.9a10,10,0,0,1-8.678-5.03L2.846,93.584a10,10,0,0,1,0-9.939L47.866,5.03A10,10,0,0,1,56.544,0Z" transform="translate(192.23 10) rotate(90)" fill="#303034"/></g><g transform="matrix(1, 0, 0, 1, 1039.65, 1510.53)" filter="url(#c)"><path d="M146.445,0a10,10,0,0,1,8.678,5.03l45.02,78.614a10,10,0,0,1,0,9.939L155.122,172.2a10,10,0,0,1-8.678,5.03h-89.9a10,10,0,0,1-8.678-5.03L2.846,93.584a10,10,0,0,1,0-9.939L47.866,5.03A10,10,0,0,1,56.544,0Z" transform="translate(386.97 10) rotate(90)" fill="#303034"/></g><g transform="matrix(1, 0, 0, 1, 1039.65, 1510.53)" filter="url(#e)"><path d="M146.445,0a10,10,0,0,1,8.678,5.03l45.02,78.614a10,10,0,0,1,0,9.939L155.122,172.2a10,10,0,0,1-8.678,5.03h-89.9a10,10,0,0,1-8.678-5.03L2.846,93.584a10,10,0,0,1,0-9.939L47.866,5.03A10,10,0,0,1,56.544,0Z" transform="translate(479.71 171.77) rotate(90)" fill="#303034"/></g><g transform="matrix(1, 0, 0, 1, 1039.65, 1510.53)" filter="url(#g)"><path d="M146.445,0a10,10,0,0,1,8.678,5.03l45.02,78.614a10,10,0,0,1,0,9.939L155.122,172.2a10,10,0,0,1-8.678,5.03h-89.9a10,10,0,0,1-8.678-5.03L2.846,93.584a10,10,0,0,1,0-9.939L47.866,5.03A10,10,0,0,1,56.544,0Z" transform="translate(290.12 171.77) rotate(90)" fill="#303034"/></g><g transform="matrix(1, 0, 0, 1, 1039.65, 1510.53)" filter="url(#i)"><path d="M146.445,0a10,10,0,0,1,8.678,5.03l45.02,78.614a10,10,0,0,1,0,9.939L155.122,172.2a10,10,0,0,1-8.678,5.03h-89.9a10,10,0,0,1-8.678-5.03L2.846,93.584a10,10,0,0,1,0-9.939L47.866,5.03A10,10,0,0,1,56.544,0Z" transform="translate(196.87 334.58) rotate(90)" fill="#303034"/></g><g transform="translate(1105.214 1585.238)"><ellipse cx="37.126" cy="37.126" rx="37.126" ry="37.126" transform="translate(0 0)" fill="none" stroke="#8f9ca3" stroke-miterlimit="10" stroke-width="4"/><g transform="translate(7.635 7.161)" clip-path="url(#k)"><path d="M671.94,408.25c6.719,0,6.719,11.026,13.439,11.026S692.1,408.25,698.83,408.25s6.719,11.026,13.439,11.026,6.719-11.026,13.439-11.026,6.719,11.026,13.452,11.026" transform="translate(-674.301 -384.266)" fill="none" stroke="#8f9ca3" stroke-miterlimit="10" stroke-width="4"/></g></g><g transform="translate(1317.271 1601.654)"><line x2="0.049" transform="translate(0 10.348)" fill="none" stroke="#8f9ca3" stroke-linecap="round" stroke-linejoin="round" stroke-width="12"/><line x2="0.049" transform="translate(0 31.073)" fill="none" stroke="#8f9ca3" stroke-linecap="round" stroke-linejoin="round" stroke-width="12"/><line x2="0.059" transform="translate(20.706 20.706)" fill="none" stroke="#8f9ca3" stroke-linecap="round" stroke-linejoin="round" stroke-width="12"/><line x2="0.059" transform="translate(20.706)" fill="none" stroke="#8f9ca3" stroke-linecap="round" stroke-linejoin="round" stroke-width="12"/><line x2="0.059" transform="translate(20.706 41.421)" fill="none" stroke="#8f9ca3" stroke-linecap="round" stroke-linejoin="round" stroke-width="12"/><line x2="0.049" transform="translate(41.421 10.348)" fill="none" stroke="#8f9ca3" stroke-linecap="round" stroke-linejoin="round" stroke-width="12"/><line x2="0.049" transform="translate(41.421 31.073)" fill="none" stroke="#8f9ca3" stroke-linecap="round" stroke-linejoin="round" stroke-width="12"/></g><path d="M625.583,524.15h-24.3v22.364l-14.613,22.71a4.71,4.71,0,0,0,4.69,4.69h37.353a4.71,4.71,0,0,0,4.69-4.69l-14.682-22.71V524.15H594.036" transform="translate(820.706 1234.761)" fill="none" stroke="#8f9ca3" stroke-linejoin="round" stroke-width="4"/><path d="M238.223,227.4l-6.013,9.341h32.614l-6.043-9.341Z" transform="translate(1181.465 1567.303)" fill="#8f9ca3" stroke="#8f9ca3" stroke-width="1"/><path d="M421.494,189.33l-26.334,31.6h23.7L416.221,242l26.334-31.6h-23.7Z" transform="translate(822.29 1568.129)" fill="none" stroke="#8f9ca3" stroke-linecap="round" stroke-linejoin="round" stroke-width="4"/><g transform="translate(1126.901 1923.364)"><ellipse cx="20.931" cy="7.161" rx="20.931" ry="7.161" transform="translate(0.064 0)" fill="none" stroke="#8f9ca3" stroke-linecap="round" stroke-linejoin="round" stroke-width="4"/><path d="M44.991,12c0,3.873-9.331,7-21,7S3,15.873,3,12" transform="translate(-3 11.135)" fill="none" stroke="#8f9ca3" stroke-linecap="round" stroke-linejoin="round" stroke-width="4"/><path d="M3,5V37.66c0,3.873,9.331,7,21,7s21-3.126,21-7V5" transform="translate(-3 1.805)" fill="none" stroke="#8f9ca3" stroke-linecap="round" stroke-linejoin="round" stroke-width="4"/></g></g></svg>