<svg xmlns="http://www.w3.org/2000/svg" width="124.574" height="21.113" viewBox="0 0 124.574 21.113"><g transform="translate(-661.185 -357.234)"><g transform="translate(661.185 367.123)"><path d="M93.271,396.764l-1.043-1.017a3.839,3.839,0,0,1-1.766.308c-3.077,0-3.277-1.953-3.277-4.628v-1.431c.08-2.555.281-4.455,3.277-4.455s3.2,1.9,3.278,4.455v1.431a7.258,7.258,0,0,1-.549,3.424l1.03,1.03ZM91.6,393.272l.094.094a5.018,5.018,0,0,0,.107-1l.013-2.783c0-.776.12-2.528-1.351-2.528s-1.351,1.753-1.351,2.528v2.783c0,.829.067,2.18,1.351,2.18a1.673,1.673,0,0,0,.482-.067l-.361-.348Z" transform="translate(-87.185 -385.54)" fill="#8f9ca3"/><path d="M121.959,386.326h1.873v7c0,2.22-.722,3.277-3.17,3.277-2.475,0-3.2-1.057-3.2-3.277v-7h1.873v6.836c0,.963.067,1.926,1.338,1.926,1.217,0,1.284-.963,1.284-1.926Z" transform="translate(-108.195 -386.085)" fill="#8f9ca3"/><path d="M144.859,396.36l2.395-10.034h2.528l2.274,10.034h-2.007l-.495-2.542h-2.194l-.495,2.542Zm2.8-4.013h1.605l-.508-2.849c-.094-.468-.134-.923-.187-1.391-.013-.227-.04-.455-.067-.669h-.027c-.027.214-.054.441-.067.669-.053.468-.093.923-.187,1.391Z" transform="translate(-127.204 -386.085)" fill="#8f9ca3"/><path d="M179.491,386.326h1.873V396.36H179.41l-1.458-3.572a33.8,33.8,0,0,1-1.338-3.987h-.027c.067.83.147,1.846.2,2.863s.094,2.006.094,2.809v1.887h-1.873V386.326h1.94l1.458,3.652a33.543,33.543,0,0,1,1.338,3.987h.027c-.067-.909-.134-1.886-.187-2.849s-.094-1.926-.094-2.823Z" transform="translate(-148.125 -386.085)" fill="#8f9ca3"/><path d="M202.755,386.326H209V387.8h-2.18v8.562h-1.873V387.8h-2.194Z" transform="translate(-167.377 -386.085)" fill="#8f9ca3"/><path d="M235.653,392.242c-.013.187-.027.388-.04.575-.094,1.833-.709,3.237-2.8,3.237-3.077,0-3.278-1.953-3.278-4.628v-1.431c.081-2.555.281-4.455,3.278-4.455a2.51,2.51,0,0,1,2.742,2.6,4.863,4.863,0,0,1,.04.763h-1.846c-.08-.642-.013-1.846-.936-1.846-1.471,0-1.351,1.753-1.351,2.528v2.783c0,.829.067,2.18,1.351,2.18,1.03,0,.91-1.659.95-2.3Z" transform="translate(-185.962 -385.54)" fill="#8f9ca3"/><path d="M257.373,389.995c.08-2.555.281-4.455,3.278-4.455s3.2,1.9,3.277,4.455v1.431c0,2.675-.2,4.628-3.277,4.628s-3.278-1.953-3.278-4.628Zm1.926,2.368c0,.829.067,2.18,1.351,2.18,1.338,0,1.351-1.378,1.351-2.341v-2.569c0-.8.04-2.582-1.351-2.582-1.472,0-1.351,1.753-1.351,2.528Z" transform="translate(-205.276 -385.54)" fill="#8f9ca3"/><path d="M292.134,386.326h1.873V396.36h-1.953l-1.458-3.572a33.742,33.742,0,0,1-1.338-3.987h-.026c.066.83.147,1.846.2,2.863s.093,2.006.093,2.809v1.887h-1.873V386.326h1.94l1.458,3.652a33.66,33.66,0,0,1,1.337,3.987h.027c-.067-.909-.134-1.886-.187-2.849s-.094-1.926-.094-2.823Z" transform="translate(-226.286 -386.085)" fill="#8f9ca3"/><path d="M322.108,386.326h1.873V396.36h-1.953l-1.458-3.572a33.751,33.751,0,0,1-1.338-3.987H319.2c.067.83.148,1.846.2,2.863s.094,2.006.094,2.809v1.887h-1.873V386.326h1.94l1.458,3.652a33.647,33.647,0,0,1,1.338,3.987h.027c-.067-.909-.134-1.886-.188-2.849s-.093-1.926-.093-2.823Z" transform="translate(-247.085 -386.085)" fill="#8f9ca3"/><path d="M347.426,396.36V386.326H352.7V387.8h-3.4v2.529h3.13V391.8H349.3v3.09h3.4v1.472Z" transform="translate(-267.762 -386.085)" fill="#8f9ca3"/><path d="M378.27,392.242c-.013.187-.027.388-.04.575-.094,1.833-.709,3.237-2.8,3.237-3.077,0-3.278-1.953-3.278-4.628v-1.431c.081-2.555.281-4.455,3.278-4.455a2.51,2.51,0,0,1,2.742,2.6,4.867,4.867,0,0,1,.04.763H376.37c-.081-.642-.013-1.846-.937-1.846-1.471,0-1.351,1.753-1.351,2.528v2.783c0,.829.067,2.18,1.351,2.18,1.03,0,.91-1.659.95-2.3Z" transform="translate(-284.922 -385.54)" fill="#8f9ca3"/><path d="M398.067,386.326h6.247V387.8h-2.181v8.562h-1.873V387.8h-2.194Z" transform="translate(-302.901 -386.085)" fill="#8f9ca3"/></g><path d="M445.29,356.222a9.7,9.7,0,0,0-3.2-2.2,10.218,10.218,0,0,0-7.862,0,10.194,10.194,0,0,0-5.4,5.4,10.124,10.124,0,0,0-.786,3.931h2.359a8.227,8.227,0,0,1,.629-2.987,7.992,7.992,0,0,1,4.14-4.141,8.033,8.033,0,0,1,5.976,0,7.527,7.527,0,0,1,4.14,4.141,7.275,7.275,0,0,1,.629,2.987,7.712,7.712,0,0,1-.629,3.04,9.582,9.582,0,0,1-1.625,2.463,7.972,7.972,0,0,1-2.515,1.625,7.276,7.276,0,0,1-2.988.629v2.358a10.132,10.132,0,0,0,3.931-.786,10.207,10.207,0,0,0,5.4-5.4,10.22,10.22,0,0,0,0-7.861A9.694,9.694,0,0,0,445.29,356.222Z" transform="translate(337.481 4)" fill="#8f9ca3"/><path d="M448.651,379.83a4.053,4.053,0,0,0,5.871,0,3.659,3.659,0,0,0,1.2-2.935h-2.358a1.735,1.735,0,0,1-.524,1.258,1.7,1.7,0,0,1-1.258.524,1.79,1.79,0,0,1-1.782-1.782,1.7,1.7,0,0,1,.524-1.258,1.74,1.74,0,0,1,1.258-.524v-2.359a4.037,4.037,0,0,0-2.936,1.205,3.969,3.969,0,0,0-1.257,2.935A3.885,3.885,0,0,0,448.651,379.83Z" transform="translate(324.056 -9.545)" fill="#8f9ca3"/><path d="M438.33,372.9a7.832,7.832,0,0,0,3.827,3.826,7.622,7.622,0,0,0,5.555,0,6.741,6.741,0,0,0,2.254-1.572,5.939,5.939,0,0,0,1.52-2.254,6.3,6.3,0,0,0,.576-2.778,6.453,6.453,0,0,0-.576-2.778,7.126,7.126,0,0,0-3.774-3.774,6.3,6.3,0,0,0-2.778-.576v2.359a4.474,4.474,0,0,1,3.354,1.415,4.555,4.555,0,0,1,1.415,3.354,4.77,4.77,0,0,1-9.539,0h-2.358A7.081,7.081,0,0,0,438.33,372.9Z" transform="translate(330.709 -2.772)" fill="#8f9ca3"/></g></svg>