<svg xmlns="http://www.w3.org/2000/svg" xmlns:xlink="http://www.w3.org/1999/xlink" width="96" height="96" viewBox="0 0 96 96"><defs><filter id="a" x="0" y="0" width="96" height="96" filterUnits="userSpaceOnUse"><feOffset dy="3" input="SourceAlpha"/><feGaussianBlur stdDeviation="3" result="b"/><feFlood flood-color="#d9e1eb" flood-opacity="0.675"/><feComposite operator="in" in2="b"/><feComposite in="SourceGraphic"/></filter></defs><g transform="translate(-852 -1112)"><g transform="matrix(1, 0, 0, 1, 852, 1112)" filter="url(#a)"><g transform="translate(9 6)" fill="#fff" stroke="#d9e1eb" stroke-width="1"><circle cx="39" cy="39" r="39" stroke="none"/><circle cx="39" cy="39" r="38.5" fill="none"/></g></g><g transform="translate(-24 660.213)"><path d="M.5.447v8" transform="translate(925 486.053)" fill="none" stroke="#8f9ca3" stroke-width="2"/><path d="M9.832-.109H-1.326" transform="translate(912.326 497.109)" fill="none" stroke="#8f9ca3" stroke-width="2"/><path d="M8.056-.742H.164" transform="translate(928.944 497.742)" fill="none" stroke="#8f9ca3" stroke-width="2"/><line y1="9" transform="translate(912 497)" fill="none" stroke="#8f9ca3" stroke-width="2"/><path d="M-.356,7.891v-9" transform="translate(936.356 498.109)" fill="none" stroke="#8f9ca3" stroke-width="2"/><g transform="translate(917 481)" fill="none" stroke="#8f9ca3" stroke-width="2"><rect width="16" height="7" rx="1" stroke="none"/><rect x="1" y="1" width="14" height="5" fill="none"/></g><g transform="translate(932 505)" fill="none" stroke="#8f9ca3" stroke-width="2"><circle cx="4" cy="4" r="4" stroke="none"/><circle cx="4" cy="4" r="3" fill="none"/></g><g transform="translate(908 505)" fill="none" stroke="#8f9ca3" stroke-width="2"><rect width="8" height="8" rx="3" stroke="none"/><rect x="1" y="1" width="6" height="6" rx="2" fill="none"/></g><g transform="translate(924.79 491.733) rotate(45)" fill="none" stroke="#8f9ca3" stroke-width="2"><rect width="8" height="8" rx="2" stroke="none"/><rect x="1" y="1" width="6" height="6" rx="1" fill="none"/></g></g></g></svg>