<svg xmlns="http://www.w3.org/2000/svg" viewBox="0 0 150 150"><defs><style>.cls-1{fill:#fff;}</style></defs><title>qc</title><g id="Layer_2" data-name="Layer 2"><g id="All_glyphs" data-name="All glyphs"><path class="cls-1" d="M127.84,22.15a71.71,71.71,0,0,0-23.7-16.32,75.77,75.77,0,0,0-58.29,0A77.74,77.74,0,0,0,21.76,22.15,77.12,77.12,0,0,0,5.83,45.86,74.94,74.94,0,0,0,0,75H17.49a61.08,61.08,0,0,1,4.66-22.15c3.11-7,7-13.21,12.43-18.26,5.05-5.44,11.27-9.33,18.26-12.44A48.06,48.06,0,0,1,75,17.88a48,48,0,0,1,22.15,4.27A60.39,60.39,0,0,1,115.8,34.59a59.64,59.64,0,0,1,12,18.26A54,54,0,0,1,132.51,75a57.15,57.15,0,0,1-4.67,22.54,70.78,70.78,0,0,1-12,18.26,59.08,59.08,0,0,1-18.65,12A53.94,53.94,0,0,1,75,132.51V150a75,75,0,0,0,29.14-5.83,77.13,77.13,0,0,0,23.7-15.93,77.69,77.69,0,0,0,16.33-24.1,75.74,75.74,0,0,0,0-58.28A71.88,71.88,0,0,0,127.84,22.15Z"/><path class="cls-1" d="M53.23,96.76A28.83,28.83,0,0,0,75,106.09a28.8,28.8,0,0,0,21.76-9.33A27.11,27.11,0,0,0,105.69,75H88.21a12.9,12.9,0,0,1-3.89,9.33A12.62,12.62,0,0,1,75,88.21c-3.89,0-7-1.16-9.33-3.88C63,82,61.78,78.88,61.78,75a12.64,12.64,0,0,1,3.89-9.33A12.87,12.87,0,0,1,75,61.79V44.3a30,30,0,0,0-21.77,8.94C47,59.46,43.91,66.45,43.91,75A28.82,28.82,0,0,0,53.23,96.76Z"/><path class="cls-1" d="M26,95.6a50.09,50.09,0,0,0,11.66,16.71A49.86,49.86,0,0,0,54.4,124,52.31,52.31,0,0,0,75,127.85,52.29,52.29,0,0,0,95.59,124a49.86,49.86,0,0,0,16.71-11.65A44,44,0,0,0,123.57,95.6,46.68,46.68,0,0,0,127.84,75a47.83,47.83,0,0,0-4.27-20.6A44,44,0,0,0,112.3,37.69,44,44,0,0,0,95.59,26.42,46.75,46.75,0,0,0,75,22.15V39.64A33.16,33.16,0,0,1,99.86,50.13c7,7,10.5,15.16,10.5,24.87a33.16,33.16,0,0,1-10.5,24.87A33.16,33.16,0,0,1,75,110.36,33.17,33.17,0,0,1,50.13,99.87,33.16,33.16,0,0,1,39.63,75H22.15A52.55,52.55,0,0,0,26,95.6Z"/></g></g></svg>