<svg xmlns="http://www.w3.org/2000/svg" viewBox="0 0 150 150"><defs><style>.cls-1{fill:#fff;}</style></defs><title>gmail</title><g id="Layer_2" data-name="Layer 2"><g id="All_glyphs" data-name="All glyphs"><path class="cls-1" d="M33.24,90.65,28,110.14l-19.08.4a75.1,75.1,0,0,1-.55-70h0l17,3.11,7.44,16.89a44.89,44.89,0,0,0,.42,30.14Z"/><path class="cls-1" d="M148.69,61A75,75,0,0,1,122,133.49h0l-21.4-1.09-3-18.91a44.69,44.69,0,0,0,19.23-22.82H76.65V61h72Z"/><path class="cls-1" d="M122,133.48h0a75,75,0,0,1-113-23l24.3-19.89a44.61,44.61,0,0,0,64.28,22.83Z"/><path class="cls-1" d="M122.87,17.27,98.58,37.16A44.61,44.61,0,0,0,32.82,60.51l-24.43-20h0A75,75,0,0,1,122.87,17.27Z"/></g></g></svg>