<svg xmlns="http://www.w3.org/2000/svg" viewBox="0 0 160.04 103.14"><defs><style>.cls-1{fill:#313131;}</style></defs><title>email</title><g id="Layer_2" data-name="Layer 2"><g id="All_glyphs" data-name="All glyphs"><path class="cls-1" d="M5.28,9.65,72,45.47a19,19,0,0,0,16.12,0L154.76,9.65c4.34-2.33,8.45-9.65.47-9.65H4.81C-3.17,0,.94,7.32,5.28,9.65ZM156.6,27.43,88.08,63.25A15.22,15.22,0,0,1,80,65,15.2,15.2,0,0,1,72,63.25L3.44,27.43C0,25.63,0,27.75,0,29.39V94.61c0,3.73,5,8.53,8.82,8.53h142.4c3.85,0,8.82-4.8,8.82-8.53V29.39C160,27.75,160.07,25.63,156.6,27.43Z"/></g></g></svg>