<svg xmlns="http://www.w3.org/2000/svg" xmlns:xlink="http://www.w3.org/1999/xlink" width="90" height="90" viewBox="0 0 90 90"><defs><filter id="a" x="0" y="0" width="90" height="90" filterUnits="userSpaceOnUse"><feOffset dy="5" input="SourceAlpha"/><feGaussianBlur stdDeviation="5" result="b"/><feFlood flood-opacity="0.243"/><feComposite operator="in" in2="b"/><feComposite in="SourceGraphic"/></filter></defs><g transform="translate(-911.5 -2867.013)"><g transform="matrix(1, 0, 0, 1, 911.5, 2867.01)" filter="url(#a)"><path d="M30,0A30,30,0,1,1,0,30,30,30,0,0,1,30,0Z" transform="translate(15 10)" fill="#303034"/></g><g transform="translate(938.756 2827.287)"><g transform="translate(0 68.733)"><g transform="translate(0 0)"><path d="M170.667,312.113l4.818,4.818,4.818-4.818A6.819,6.819,0,0,0,170.667,312.113Z" transform="translate(-157.818 -291.947)" fill="#f3ba2f"/><path d="M85.333,194.082l3.212,3.212a11.361,11.361,0,0,1,16.061,0l3.212-3.212A15.9,15.9,0,0,0,85.333,194.082Z" transform="translate(-78.909 -180.34)" fill="#f3ba2f"/><path d="M0,76.051l3.212,3.212a20.444,20.444,0,0,1,28.91,0l3.212-3.212A24.985,24.985,0,0,0,0,76.051Z" transform="translate(0 -68.733)" fill="#f3ba2f"/></g></g></g></g></svg>