<svg xmlns="http://www.w3.org/2000/svg" xmlns:xlink="http://www.w3.org/1999/xlink" width="90" height="90" viewBox="0 0 90 90"><defs><filter id="a" x="0" y="0" width="90" height="90" filterUnits="userSpaceOnUse"><feOffset dy="5" input="SourceAlpha"/><feGaussianBlur stdDeviation="5" result="b"/><feFlood flood-opacity="0.243"/><feComposite operator="in" in2="b"/><feComposite in="SourceGraphic"/></filter></defs><g transform="translate(-911.5 -2637.225)"><g transform="matrix(1, 0, 0, 1, 911.5, 2637.23)" filter="url(#a)"><path d="M30,0A30,30,0,1,1,0,30,30,30,0,0,1,30,0Z" transform="translate(15 10)" fill="#303034"/></g><path d="M11.571,18.2l-.488,6.861a1.706,1.706,0,0,0,1.363-.66l3.272-3.127,6.78,4.965c1.243.693,2.12.328,2.455-1.144L29.4,4.238h0C29.8,2.4,28.74,1.679,27.529,2.13L1.369,12.146c-1.785.693-1.758,1.688-.3,2.139l6.688,2.08L23.288,6.645c.731-.484,1.4-.216.849.268Z" transform="translate(938.756 2663.078)" fill="#f3ba2f"/></g></svg>