<svg xmlns="http://www.w3.org/2000/svg" xmlns:xlink="http://www.w3.org/1999/xlink" width="96" height="96" viewBox="0 0 96 96"><defs><filter id="a" x="0" y="0" width="96" height="96" filterUnits="userSpaceOnUse"><feOffset dy="3" input="SourceAlpha"/><feGaussianBlur stdDeviation="3" result="b"/><feFlood flood-color="#d9e1eb" flood-opacity="0.675"/><feComposite operator="in" in2="b"/><feComposite in="SourceGraphic"/></filter></defs><g transform="translate(-231 -5369.274)"><g transform="translate(-621 4257.274)"><g transform="matrix(1, 0, 0, 1, 852, 1112)" filter="url(#a)"><g transform="translate(9 6)" fill="#fff" stroke="#d9e1eb" stroke-width="1"><circle cx="39" cy="39" r="39" stroke="none"/><circle cx="39" cy="39" r="38.5" fill="none"/></g></g></g><g transform="translate(259.82 5395.078)"><circle cx="17" cy="17" r="17" transform="translate(2.18 2.18)" fill="none" stroke="#8f9ca3" stroke-linecap="round" stroke-linejoin="round" stroke-width="2"/><path d="M2,12H36.359" transform="translate(0 7.18)" fill="none" stroke="#8f9ca3" stroke-linecap="round" stroke-linejoin="round" stroke-width="2"/><path d="M14.872,2a26.285,26.285,0,0,1,6.872,17.18,26.285,26.285,0,0,1-6.872,17.18A26.285,26.285,0,0,1,8,19.18,26.285,26.285,0,0,1,14.872,2Z" transform="translate(4.308 0)" fill="none" stroke="#8f9ca3" stroke-linecap="round" stroke-linejoin="round" stroke-width="2"/></g></g></svg>