<svg xmlns="http://www.w3.org/2000/svg" xmlns:xlink="http://www.w3.org/1999/xlink" width="80" height="80" viewBox="0 0 80 80"><defs><filter id="a" x="0" y="0" width="80" height="80" filterUnits="userSpaceOnUse"><feOffset dy="5" input="SourceAlpha"/><feGaussianBlur stdDeviation="5" result="b"/><feFlood flood-opacity="0.251"/><feComposite operator="in" in2="b"/><feComposite in="SourceGraphic"/></filter></defs><g transform="translate(-1190 -4843.914)"><g transform="translate(344 3735.722)"><g transform="matrix(1, 0, 0, 1, 846, 1108.19)" filter="url(#a)"><circle cx="25" cy="25" r="25" transform="translate(15 10)" fill="#303034"/></g></g><g transform="translate(3 -131.804)"><path d="M26.8,10.925l5.049-5.049L36.9,10.928,39.841,7.99,31.851,0,23.864,7.987Z" transform="translate(1195.943 4998.718)" fill="#f3ba2f"/><rect width="4.155" height="4.155" transform="translate(1217.732 5008.779) rotate(45)" fill="#f3ba2f"/><path d="M26.785,73.4l5.049,5.049L36.886,73.4l2.94,2.936v0l-7.99,7.99-7.987-7.987,0,0Z" transform="translate(1195.959 4940.394)" fill="#f3ba2f"/><rect width="4.155" height="4.155" transform="translate(1240.794 5011.719) rotate(135)" fill="#f3ba2f"/><path d="M54.2,51.761h0L51.217,48.78l-2.2,2.2h0l-.253.253-.522.522h0l0,0,0,0,2.979,2.979L54.2,51.764v0Z" transform="translate(1176.577 4959.956)" fill="#f3ba2f"/></g></g></svg>