<svg xmlns="http://www.w3.org/2000/svg" xmlns:xlink="http://www.w3.org/1999/xlink" width="80" height="80" viewBox="0 0 80 80"><defs><filter id="a" x="0" y="0" width="80" height="80" filterUnits="userSpaceOnUse"><feOffset dy="5" input="SourceAlpha"/><feGaussianBlur stdDeviation="5" result="b"/><feFlood flood-opacity="0.251"/><feComposite operator="in" in2="b"/><feComposite in="SourceGraphic"/></filter></defs><g transform="translate(-496 -4843.914)"><g transform="translate(-350 3735.722)"><g transform="matrix(1, 0, 0, 1, 846, 1108.19)" filter="url(#a)"><circle cx="25" cy="25" r="25" transform="translate(15 10)" fill="#303034"/></g></g><g transform="translate(-1116.519 2411.225)"><g transform="translate(1640.54 2453.69)"><g transform="translate(0 11.464)"><g transform="translate(0 1.107)"><path d="M1.061,3.33c0,.948-.076,1.256-.271,1.484a1.18,1.18,0,0,1-.791.3l.076.541A1.852,1.852,0,0,0,1.31,5.209a2.166,2.166,0,0,0,.4-.764,2.166,2.166,0,0,0,.073-.861V0H1.061V3.33Z" fill="#f3ba2f"/></g><g transform="translate(3.126 1.113)"><path d="M3.346,2.9c0,.406,0,.769.032,1.083H2.734l-.043-.644a1.5,1.5,0,0,1-1.316.736C.747,4.072,0,3.731,0,2.339V.027H.726V2.193c0,.753.233,1.256.888,1.256A1.013,1.013,0,0,0,2.637,2.426V0h.726V2.875Z" fill="#f3ba2f"/></g><g transform="translate(7.815 1.046)"><path d="M.032,1.382c0-.5,0-.915-.032-1.289H.65L.682.77A1.57,1.57,0,0,1,2.1,0,1.8,1.8,0,0,1,3.79,2.01,1.877,1.877,0,0,1,1.976,4.133,1.4,1.4,0,0,1,.747,3.51h0V5.676H.032V1.382ZM.747,2.438A1.625,1.625,0,0,0,.78,2.73a1.115,1.115,0,0,0,1.083.839c.763,0,1.213-.623,1.213-1.527,0-.791-.422-1.467-1.186-1.467A1.245,1.245,0,0,0,.747,1.761Z" transform="translate(0 0)" fill="#f3ba2f"/></g><g transform="translate(12.096 1.125)"><path d="M.8.011l.872,2.334c.092.26.19.574.254.807.076-.238.157-.541.254-.823L2.973.011h.763L2.653,2.826A6.222,6.222,0,0,1,1.283,5.3,1.971,1.971,0,0,1,.4,5.766L.217,5.16A1.922,1.922,0,0,0,.85,4.808a2.166,2.166,0,0,0,.612-.8.541.541,0,0,0,.06-.173.623.623,0,0,0-.049-.19L0,0H.791Z" fill="#f3ba2f"/></g><g transform="translate(16.427)"><path d="M1.332,0V1.137h1.04v.541H1.332V3.812c0,.487.141.769.541.769A1.624,1.624,0,0,0,2.3,4.532l.032.541a1.787,1.787,0,0,1-.644.1,1.007,1.007,0,0,1-.785-.3A1.457,1.457,0,0,1,.617,3.839V1.673H0V1.132H.628V.168Z" fill="#f3ba2f"/></g><g transform="translate(19.419 1.064)"><path d="M.716,2.177a1.272,1.272,0,0,0,1.37,1.37,2.642,2.642,0,0,0,1.083-.206l.125.541a3.249,3.249,0,0,1-1.327.244A1.841,1.841,0,0,1,.007,2.133,1.927,1.927,0,0,1,1.875,0,1.663,1.663,0,0,1,3.5,1.863a2.707,2.707,0,0,1,0,.336H.7Zm2.122-.541A1.023,1.023,0,0,0,1.831.466a1.2,1.2,0,0,0-1.11,1.17Z" fill="#f3ba2f"/></g><g transform="translate(23.986 1.034)"><path d="M.032,1.333C.032.868.032.467,0,.1H.65V.873H.682A1.2,1.2,0,0,1,1.765.007a.791.791,0,0,1,.206,0V.684a1.082,1.082,0,0,0-.249,0,1.013,1.013,0,0,0-.969.92A2,2,0,0,0,.72,1.94V4.046H.005V1.339Z" transform="translate(0 0)" fill="#f3ba2f"/></g></g><g transform="translate(0.809)"><g transform="translate(19.224)"><path d="M3.668,1.725A1.836,1.836,0,1,1,1.756,0,1.814,1.814,0,0,1,3.668,1.725Z" transform="translate(0 0)" fill="#f3ba2f"/></g><g transform="translate(0.815 18.598)"><path d="M11.37,4.332C6.5,4.332,2.215,2.583,0,0A12.123,12.123,0,0,0,4.443,5.744,12.123,12.123,0,0,0,11.37,7.918,12.123,12.123,0,0,0,18.3,5.744,12.123,12.123,0,0,0,22.741,0C20.532,2.583,16.265,4.332,11.37,4.332Z" fill="#f3ba2f"/></g><g transform="translate(0.815 2.548)"><path d="M11.37,3.587c4.873,0,9.156,1.749,11.37,4.332A12.123,12.123,0,0,0,0,7.918C2.215,5.33,6.476,3.587,11.37,3.587Z" fill="#f3ba2f"/></g><g transform="translate(0.858 25.786)"><path d="M4.62,2.169A2.29,2.29,0,1,1,4.4,1.3a2.312,2.312,0,0,1,.221.866Z" transform="translate(0 0)" fill="#f3ba2f"/></g><g transform="translate(0 2.883)"><path d="M1.369,2.663A1.332,1.332,0,1,1,2.663,1.277,1.348,1.348,0,0,1,1.369,2.663Z" transform="translate(0 0)" fill="#f3ba2f"/></g></g></g></g></g></svg>