<svg xmlns="http://www.w3.org/2000/svg" width="361.196" height="72.241" viewBox="0 0 361.196 72.241"><g transform="translate(0.547)"><path d="M32.027,30.356,46.056,16.327,60.093,30.364,68.256,22.2,46.056,0,23.864,22.193Z" transform="translate(-10.483)" fill="#f3ba2f"/><rect width="11.544" height="11.545" transform="translate(7.617 27.956) rotate(45)" fill="#f3ba2f"/><path d="M32.018,73.4,46.047,87.431,60.083,73.4l8.168,8.159,0,0-22.2,22.2L23.854,81.567l-.011-.011Z" transform="translate(-10.474 -31.518)" fill="#f3ba2f"/><rect width="11.545" height="11.544" transform="translate(71.695 36.123) rotate(135)" fill="#f3ba2f"/><path d="M64.8,57.064h0L56.522,48.78,50.4,54.9h0l-.7.7-1.451,1.451h0l-.011.011.011.012,8.276,8.276,8.284-8.284,0,0Z" transform="translate(-20.948 -20.948)" fill="#f3ba2f"/><path d="M148.37,30.679h17.754q6.61,0,10,3.393a8.855,8.855,0,0,1,2.621,6.513v.11a9.4,9.4,0,0,1-.407,2.9,9.02,9.02,0,0,1-1.088,2.271,8.651,8.651,0,0,1-1.577,1.778,10.569,10.569,0,0,1-1.93,1.313,12.917,12.917,0,0,1,5.23,3.421,8.756,8.756,0,0,1,1.907,5.993v.109a9.943,9.943,0,0,1-1.01,4.6,8.932,8.932,0,0,1-2.9,3.284,13.569,13.569,0,0,1-4.535,1.97,24.43,24.43,0,0,1-5.872.656H148.37Zm15.979,15.487a8.775,8.775,0,0,0,4.433-.957,3.308,3.308,0,0,0,1.642-3.092v-.11A3.373,3.373,0,0,0,169,39.08a7.029,7.029,0,0,0-4.1-1.013h-8.318v8.1ZM166.593,61.6a8.1,8.1,0,0,0,4.378-1.012,3.468,3.468,0,0,0,1.587-3.147v-.109a3.615,3.615,0,0,0-1.478-3.038,7.962,7.962,0,0,0-4.761-1.121h-9.741V61.6h10.015Z" transform="translate(-63.949 -13.174)" fill="#f3ba2f"/><path d="M223.875,30.679H232.3V68.988h-8.428Z" transform="translate(-96.373 -13.174)" fill="#f3ba2f"/><path d="M261.02,30.679h7.77l17.951,23.587V30.679h8.318V68.988h-7.169L269.338,44.635V68.988H261.02Z" transform="translate(-112.324 -13.174)" fill="#f3ba2f"/><path d="M353.04,30.2h7.771L377.23,68.782h-8.811l-3.5-8.592h-16.2l-3.5,8.592h-8.593Zm8.866,22.547-5.09-12.422-5.088,12.422Z" transform="translate(-144.789 -12.969)" fill="#f3ba2f"/><path d="M423.738,30.679h7.772l17.95,23.587V30.679h8.318V68.988h-7.169L432.056,44.635V68.988h-8.318Z" transform="translate(-182.2 -13.174)" fill="#f3ba2f"/><path d="M521.77,69.15a19.844,19.844,0,0,1-7.827-1.532A18.887,18.887,0,0,1,503.6,57.165a20.179,20.179,0,0,1-1.478-7.717v-.109A19.971,19.971,0,0,1,503.6,41.65a19.746,19.746,0,0,1,4.1-6.293A19.024,19.024,0,0,1,514,31.087a20.492,20.492,0,0,1,8.1-1.559,25.4,25.4,0,0,1,4.9.438,20.508,20.508,0,0,1,4.023,1.2,17.522,17.522,0,0,1,3.339,1.861,22.749,22.749,0,0,1,2.845,2.408l-5.362,6.184a20.327,20.327,0,0,0-4.57-3.174,11.647,11.647,0,0,0-5.226-1.149,10.608,10.608,0,0,0-7.99,3.5,12.023,12.023,0,0,0-2.3,3.8,12.947,12.947,0,0,0-.819,4.624v.109a13.16,13.16,0,0,0,.819,4.651,12.17,12.17,0,0,0,2.272,3.831,10.525,10.525,0,0,0,8.017,3.558,11.731,11.731,0,0,0,5.554-1.2,21.494,21.494,0,0,0,4.516-3.284l5.363,5.418a27.857,27.857,0,0,1-3.065,2.845,18.218,18.218,0,0,1-3.476,2.162,18.009,18.009,0,0,1-4.131,1.368A24.928,24.928,0,0,1,521.77,69.15Z" transform="translate(-215.861 -12.68)" fill="#f3ba2f"/><path d="M581.467,30.679h28.841v7.5H589.786v7.771h18.06v7.5h-18.06V61.49h20.8v7.5H581.467Z" transform="translate(-249.933 -13.174)" fill="#f3ba2f"/></g></svg>